<svg width="175" height="64" viewBox="0 0 175 64" fill="none" xmlns="http://www.w3.org/2000/svg">
<rect width="175" height="64" rx="15" fill="#700B97"/>
<rect x="41.3857" y="16.3115" width="20.7716" height="30.541" rx="6" fill="#8E05C2"/>
<rect x="31" y="11" width="4.24874" height="39.3934" fill="#8E05C2"/>
<rect width="3.04292" height="28.2711" transform="matrix(0.723635 -0.690183 0.723635 0.690183 62.1573 13.1002)" fill="#8E05C2"/>
<rect width="3.19127" height="27.7228" transform="matrix(0.723635 0.690183 -0.723635 0.690183 82.6907 28.592)" fill="#8E05C2"/>
<path d="M54.3477 37H51.377V27.543L48.459 28.3955V26.1455L54.0752 24.2031H54.3477V37Z" fill="white"/>
<rect x="106.386" y="16.3115" width="20.7716" height="30.541" rx="6" fill="#8E05C2"/>
<rect x="96" y="11" width="4.24874" height="39.3934" fill="#8E05C2"/>
<rect width="3.04292" height="28.2711" transform="matrix(0.723635 -0.690183 0.723635 0.690183 127.157 13.1002)" fill="#8E05C2"/>
<rect width="3.19127" height="27.7228" transform="matrix(0.723635 0.690183 -0.723635 0.690183 147.691 28.592)" fill="#8E05C2"/>
<path d="M121.668 31.7705C121.668 33.499 121.278 34.832 120.499 35.7695C119.726 36.707 118.633 37.1758 117.221 37.1758C115.797 37.1758 114.695 36.7041 113.916 35.7607C113.137 34.8174 112.747 33.4873 112.747 31.7705V29.4326C112.747 27.7041 113.134 26.3711 113.907 25.4336C114.687 24.4961 115.785 24.0273 117.203 24.0273C118.621 24.0273 119.72 24.499 120.499 25.4424C121.278 26.3857 121.668 27.7188 121.668 29.4414V31.7705ZM118.706 29.0547C118.706 28.1348 118.586 27.4492 118.346 26.998C118.105 26.541 117.725 26.3125 117.203 26.3125C116.693 26.3125 116.321 26.5234 116.087 26.9453C115.858 27.3672 115.735 28.0059 115.718 28.8613V32.1309C115.718 33.0859 115.838 33.7861 116.078 34.2314C116.318 34.6709 116.699 34.8906 117.221 34.8906C117.725 34.8906 118.097 34.6768 118.337 34.249C118.577 33.8154 118.7 33.1387 118.706 32.2188V29.0547Z" fill="white"/>
<path d="M83.4961 59.5938L81.5039 58.6562L81.9023 57.8594C82.4492 56.8438 82.7344 55.875 82.7578 54.9531V52.0234H85.9219L85.9102 54.5664C85.9023 55.4648 85.6719 56.3789 85.2188 57.3086C84.7656 58.2383 84.1914 59 83.4961 59.5938Z" fill="white"/>
<path d="M17.8789 49.3281C13.6602 48.1445 11.5508 45.4199 11.5508 41.1543V37.6738C11.5508 35.3066 10.6016 34.123 8.70312 34.123V30.1328C10.6016 30.1328 11.5508 28.9434 11.5508 26.5645V22.873C11.5859 20.7637 12.1309 19.0586 13.1855 17.7578C14.252 16.457 15.8164 15.5137 17.8789 14.9277L18.9863 18.0215C17.5098 18.584 16.7422 20.1602 16.6836 22.75V26.5645C16.6836 29.1895 15.5996 31.041 13.4316 32.1191C15.5996 33.1973 16.6836 35.0547 16.6836 37.6914V41.4883C16.7422 44.0781 17.5098 45.6543 18.9863 46.2168L17.8789 49.3281Z" fill="white"/>
<path d="M156.121 48.3281C160.34 47.1445 162.449 44.4199 162.449 40.1543V36.6738C162.449 34.3066 163.398 33.123 165.297 33.123V29.1328C163.398 29.1328 162.449 27.9434 162.449 25.5645V21.873C162.414 19.7637 161.869 18.0586 160.814 16.7578C159.748 15.457 158.184 14.5137 156.121 13.9277L155.014 17.0215C156.49 17.584 157.258 19.1602 157.316 21.75V25.5645C157.316 28.1895 158.4 30.041 160.568 31.1191C158.4 32.1973 157.316 34.0547 157.316 36.6914V40.4883C157.258 43.0781 156.49 44.6543 155.014 45.2168L156.121 48.3281Z" fill="white"/>
</svg>
